#!OML:ASF H:\ManfredETheater\Project 1\Capture day 1\Session 1\subject.ASF
:FULLY-SPECIFIED
:DEGREES
221
root 1.67512 17.9836 -4.94148 7.52634 2.0181 -0.877157
lowerback -1.14526 2.5139 -2.44088
upperback 1.66509 3.5682 -6.68735
thorax 2.64873 1.81645 -5.44095
lowerneck -9.1071 -7.55268 -6.37567
upperneck 44.5793 -13.2582 7.38136
head 20.0571 -5.49425 2.27311
rclavicle -8.34896e-015 6.04305e-014
rhumerus -85.8101 54.0755 -100.639
rradius 113.392
rwrist -21.2261
rhand 44.9571 -27.2873
rfingers 7.12502
rthumb 66.3541 -32.0352
lclavicle -8.34896e-015 6.04305e-014
lhumerus 31.7868 40.2153 48.6672
lradius 108.361
lwrist -21.5351
lhand -26.1891 3.26601
lfingers 7.12502
lthumb 0.363115 33.2454
rfemur -13.9713 -1.22408 12.0423
rtibia 27.8728
rfoot -15.2284 -17.0929
rtoes 2.54617
lfemur -16.7496 -3.9369 -10.322
ltibia 31.5834
lfoot -15.2667 12.4693
ltoes -10.3189
222
root 1.68277 17.9832 -4.94239 7.48415 1.89079 -0.842174
lowerback -1.19294 2.49782 -2.30472
upperback 1.67903 3.54994 -6.75557
thorax 2.70183 1.81154 -5.58887
lowerneck -9.26501 -7.56916 -6.11746
upperneck 44.5101 -13.406 7.47824
head 20.0607 -5.49464 2.23664
rclavicle 2.0276e-014 6.52014e-014
rhumerus -84.403 55.4228 -98.5889
rradius 115.09
rwrist -22.7124
rhand 45.1542 -26.8843
rfingers 7.12502
rthumb 66.5042 -31.3395
lclavicle 2.0276e-014 6.52014e-014
lhumerus 29.6532 39.8353 48.6998
lradius 107.729
lwrist -21.3382
lhand -26.2726 3.44657
lfingers 7.12502
lthumb 0.282441 33.4261
rfemur -13.9629 -1.1492 11.9597
rtibia 27.8851
rfoot -15.1909 -17.0445
rtoes 2.49421
lfemur -16.6762 -3.84154 -10.4112
ltibia 31.5952
lfoot -15.2774 12.4983
ltoes -10.3008
223
root 1.69075 17.9828 -4.94293 7.43942 1.74751 -0.807873
lowerback -1.24403 2.4796 -2.16969
upperback 1.69324 3.52862 -6.813
thorax 2.75596 1.805 -5.72494
lowerneck -9.41642 -7.58265 -5.86482
upperneck 44.4378 -13.5407 7.55856
head 20.0563 -5.49311 2.19555
rclavicle 6.83819e-014 -1.27222e-014
rhumerus -82.5823 56.7643 -96.1011
rradius 116.688
rwrist -24.2482
rhand 45.3374 -26.4685
rfingers 7.12502
rthumb 66.6432 -30.6479
lclavicle 6.83819e-014 -1.27222e-014
lhumerus 27.3505 39.4158 48.6024
lradius 106.99
lwrist -21.1067
lhand -26.2565 3.67812
lfingers 7.12502
lthumb 0.298043 33.6577
rfemur -13.9539 -1.07434 11.8747
rtibia 27.895
rfoot -15.1493 -16.98
rtoes 2.43743
lfemur -16.5954 -3.75127 -10.5027
ltibia 31.6097
lfoot -15.2929 12.5459
ltoes -10.2775
224
root 1.69894 17.9822 -4.94319 7.39306 1.59192 -0.773698
lowerback -1.29824 2.45916 -2.03721
upperback 1.70762 3.5041 -6.85944
thorax 2.81072 1.7967 -5.84815
lowerneck -9.55912 -7.59234 -5.61325
upperneck 44.3616 -13.6606 7.61966
head 20.0416 -5.48871 2.1482
rclavicle -1.19271e-014 -6.20208e-014
rhumerus -80.2904 58.0681 -93.1224
rradius 118.184
rwrist -25.8272
rhand 45.4843 -26.0288
rfingers 7.12502
rthumb 66.7541 -29.9848
lclavicle -1.19271e-014 -6.20208e-014
lhumerus 24.8923 38.9402 48.3834
lradius 106.153
lwrist -20.84
lhand -26.135 3.9397
lfingers 7.12502
lthumb 0.415342 33.919
rfemur -13.9444 -0.998665 11.7875
rtibia 27.9026
rfoot -15.1052 -16.9039
rtoes 2.37815
lfemur -16.51 -3.6659 -10.5959
ltibia 31.6268
lfoot -15.3122 12.6086
ltoes -10.2502
225
root 1.70722 17.9815 -4.94316 7.34616 1.42812 -0.739029
lowerback -1.35627 2.43612 -1.90966
upperback 1.72241 3.47595 -6.89416
thorax 2.86649 1.78638 -5.95627
lowerneck -9.69269 -7.59737 -5.35721
upperneck 44.2816 -13.7639 7.6576
head 20.0148 -5.48024 2.09217
rclavicle 3.45885e-014 1.59028e-014
rhumerus -77.4721 59.2958 -89.602
rradius 119.577
rwrist -27.4397
rhand 45.5668 -25.5521
rfingers 7.12502
rthumb 66.8163 -29.3817
lclavicle 3.45885e-014 1.59028e-014
lhumerus 22.2945 38.3912 48.0533
lradius 105.227
lwrist -20.5308
lhand -25.9109 4.20646
lfingers 7.12502
lthumb 0.631809 34.1853
rfemur -13.935 -0.92267 11.6985
rtibia 27.9081
rfoot -15.0601 -16.8198
rtoes 2.31787
lfemur -16.4225 -3.5846 -10.6906
ltibia 31.6466
lfoot -15.3341 12.6818
ltoes -10.2211
226
root 1.71547 17.9807 -4.94289 7.29993 1.25976 -0.703973
lowerback -1.41863 2.40999 -1.78953
upperback 1.73778 3.44357 -6.91584
thorax 2.92342 1.77363 -6.04649
lowerneck -9.81852 -7.59684 -5.09123
upperneck 44.1989 -13.8485 7.6683
head 19.9757 -5.46652 2.02493
rclavicle -4.13472e-014 1.43125e-014
rhumerus -74.0823 60.4028 -85.4989
rradius 120.869
rwrist -29.0747
rhand 45.5579 -25.0267
rfingers 7.12502
rthumb 66.8096 -28.8698
lclavicle -4.13472e-014 1.43125e-014
lhumerus 19.5735 37.751 47.6232
lradius 104.22
lwrist -20.1655
lhand -25.5941 4.45712
lfingers 7.12502
lthumb 0.937789 34.4348
rfemur -13.9259 -0.846892 11.6088
rtibia 27.9117
rfoot -15.015 -16.7308
rtoes 2.25629
lfemur -16.3354 -3.50626 -10.7856
ltibia 31.6688
lfoot -15.3575 12.7614
ltoes -10.1936
227
root 1.72355 17.9799 -4.94232 7.25551 1.08995 -0.669038
lowerback -1.48597 2.38023 -1.67934
upperback 1.75414 3.40629 -6.92299
thorax 2.98201 1.75804 -6.11573
lowerneck -9.94035 -7.59025 -4.81005
upperneck 44.1155 -13.9135 7.64729
head 19.9254 -5.44657 1.94363
rclavicle 1.63003e-014 5.88403e-014
rhumerus -70.0958 61.3377 -80.7932
rradius 122.059
rwrist -30.7218
rhand 45.4334 -24.446
rfingers 7.12502
rthumb 66.7157 -28.4797
lclavicle 1.63003e-014 5.88403e-014
lhumerus 16.7464 37 47.1037
lradius 103.142
lwrist -19.722
lhand -25.2016 4.67827
lfingers 7.12502
lthumb 1.31682 34.654
rfemur -13.9175 -0.772327 11.5197
rtibia 27.9134
rfoot -14.9708 -16.639
rtoes 2.19258
lfemur -16.2505 -3.43036 -10.8795
ltibia 31.6932
lfoot -15.3816 12.8443
ltoes -10.1698
228
root 1.73138 17.979 -4.94146 7.2137 0.921071 -0.634922
lowerback -1.55772 2.34624 -1.58113
upperback 1.77156 3.3633 -6.91436
thorax 3.04171 1.7391 -6.16152
lowerneck -10.062 -7.57728 -4.50945
upperneck 44.0342 -13.9583 7.59093
head 19.8658 -5.41976 1.84592
rclavicle -2.26615e-014 5.24792e-014
rhumerus -65.5258 62.0439 -75.5037
rradius 123.148
rwrist -32.3716
rhand 45.1743 -23.8082
rfingers 7.12502
rthumb 66.5195 -28.2333
lclavicle -2.26615e-014 5.24792e-014
lhumerus 13.8306 36.1159 46.5043
lradius 101.999
lwrist -19.1709
lhand -24.7554 4.8692
lfingers 7.12502
lthumb 1.74783 34.8418
rfemur -13.91 -0.700646 11.4327
rtibia 27.9134
rfoot -14.9276 -16.545
rtoes 2.12564
lfemur -16.1689 -3.35718 -10.9709
ltibia 31.7193
lfoot -15.4058 12.9288
ltoes -10.1508
229
root 1.73886 17.9781 -4.94028 7.17496 0.75439 -0.60277
lowerback -1.63262 2.30775 -1.49633
upperback 1.78991 3.31413 -6.88903
thorax 3.10152 1.71651 -6.18213
lowerneck -10.1874 -7.55793 -4.18685
upperneck 43.9578 -13.9833 7.49749
head 19.7999 -5.38592 1.73046
rclavicle -1.59028e-014 1.43125e-014
rhumerus -60.4365 62.4639 -69.7019
rradius 124.135
rwrist -34.0169
rhand 44.7702 -23.1177
rfingers 7.12502
rthumb 66.2112 -28.1396
lclavicle -1.59028e-014 1.43125e-014
lhumerus 10.8466 35.0731 45.8367
lradius 100.798
lwrist -18.4782
lhand -24.275 5.03926
lfingers 7.12502
lthumb 2.21181 35.0075
rfemur -13.9037 -0.632373 11.3494
rtibia 27.9118
rfoot -14.8856 -16.4493
rtoes 2.05546
lfemur -16.0911 -3.28818 -11.0583
ltibia 31.7466
lfoot -15.43 13.0155
ltoes -10.1359
230
root 1.74594 17.9771 -4.93879 7.13899 0.590277 -0.573412
lowerback -1.70832 2.26469 -1.42608
upperback 1.80898 3.25858 -6.84663
thorax 3.15984 1.69009 -6.17663
lowerneck -10.3192 -7.53253 -3.84181
upperneck 43.8884 -13.99 7.36723
head 19.7303 -5.34541 1.59713
rclavicle -1.35174e-014 -1.74931e-014
rhumerus -54.9535 62.5453 -63.5218
rradius 125.019
rwrist -35.6524
rhand 44.2152 -22.3844
rfingers 7.12502
rthumb 65.7835 -28.2005
lclavicle -1.35174e-014 -1.74931e-014
lhumerus 7.81815 33.8434 45.1155
lradius 99.5447
lwrist -17.609
lhand -23.7708 5.20586
lfingers 7.12502
lthumb 2.69869 35.1685
rfemur -13.8987 -0.567686 11.2709
rtibia 27.9093
rfoot -14.8448 -16.3519
rtoes 1.9833
lfemur -16.0161 -3.22588 -11.1404
ltibia 31.7742
lfoot -15.4544 13.1063
ltoes -10.1224
231
root 1.75258 17.9762 -4.93701 7.10545 0.428397 -0.547348
lowerback -1.78267 2.21718 -1.37138
upperback 1.82814 3.1967 -6.78731
thorax 3.21484 1.65981 -6.14468
lowerneck -10.4575 -7.50141 -3.47606
upperneck 43.8268 -13.9803 7.20311
head 19.6588 -5.29893 1.44749
rclavicle -5.56597e-015 -3.49861e-014
rhumerus -49.2571 62.2491 -57.1533
rradius 125.798
rwrist -37.273
rhand 43.5095 -21.6186
rfingers 7.12502
rthumb 65.2326 -28.4033
lclavicle -5.56597e-015 -3.49861e-014
lhumerus 4.77288 32.3975 44.3609
lradius 98.2476
lwrist -16.5339
lhand -23.2411 5.38967
lfingers 7.12502
lthumb 3.21025 35.3453
rfemur -13.8952 -0.50655 11.1978
rtibia 27.9065
rfoot -14.8049 -16.252
rtoes 1.91112
lfemur -15.9427 -3.17329 -11.2168
ltibia 31.8012
lfoot -15.4792 13.2044
ltoes -10.1064
232
root 1.75875 17.9754 -4.93496 7.07363 0.267895 -0.523962
lowerback -1.85376 2.16544 -1.33409
upperback 1.84674 3.12874 -6.71168
thorax 3.26482 1.62572 -6.08597
lowerneck -10.6011 -7.46497 -3.09327
upperneck 43.7732 -13.9559 7.00975
head 19.5868 -5.24743 1.28421
rclavicle -1.15295e-014 6.67916e-014
rhumerus -43.5552 61.5562 -50.8143
rradius 126.471
rwrist -38.875
rhand 42.6573 -20.8336
rfingers 7.12502
rthumb 64.558 -28.7297
lclavicle -1.15295e-014 6.67916e-014
lhumerus 1.74125 30.708 43.5994
lradius 96.9154
lwrist -15.2378
lhand -22.6671 5.6113
lfingers 7.12502
lthumb 3.76461 35.5578
rfemur -13.8935 -0.448915 11.1295
rtibia 27.9045
rfoot -14.7655 -16.1489
rtoes 1.84002
lfemur -15.8695 -3.13296 -11.2885
ltibia 31.8265
lfoot -15.5043 13.3133
ltoes -10.0854
233
root 1.76446 17.9747 -4.93261 7.04311 0.107929 -0.502634
lowerback -1.9207 2.10976 -1.31581
upperback 1.86404 3.0551 -6.62037
thorax 3.30864 1.58798 -6.00032
lowerneck -10.7472 -7.42368 -2.69816
upperneck 43.7267 -13.9189 6.79249
head 19.5149 -5.19196 1.11051
rclavicle 5.20816e-014 -4.92986e-014
rhumerus -38.0478 60.4696 -44.7156
rradius 127.038
rwrist -40.453
rhand 41.6658 -20.0403
rfingers 7.12502
rthumb 63.7608 -29.154
lclavicle 5.20816e-014 -4.92986e-014
lhumerus -1.24518 28.7518 42.8629
lradius 95.5589
lwrist -13.7243
lhand -22.0212 5.88672
lfingers 7.12502
lthumb 4.38832 35.8213
rfemur -13.8941 -0.395278 11.0651
rtibia 27.9045
rfoot -14.7265 -16.041
rtoes 1.77165
lfemur -15.795 -3.10665 -11.3565
ltibia 31.8492
lfoot -15.5299 13.4357
ltoes -10.0568
234
root 1.76969 17.974 -4.92997 7.01404 -0.0526367 -0.481995
lowerback -1.9834 2.05045 -1.31906
upperback 1.87907 2.9763 -6.5141
thorax 3.34537 1.54676 -5.88709
lowerneck -10.8934 -7.37805 -2.29659
upperneck 43.6862 -13.8709 6.55732
head 19.4433 -5.13361 0.930112
rclavicle -2.42517e-014 7.31528e-014
rhumerus -32.8943 59.0122 -39.0261
rradius 127.499
rwrist -42.0014
rhand 40.5473 -19.2485
rfingers 7.12502
rthumb 62.8473 -29.6458
lclavicle -2.42517e-014 7.31528e-014
lhumerus -4.15753 26.5115 42.1864
lradius 94.1901
lwrist -12.0198
lhand -21.2734 6.22408
lfingers 7.12502
lthumb 5.11037 36.1425
rfemur -13.8981 -0.346127 11.0029
rtibia 27.9078
rfoot -14.6873 -15.9268
rtoes 1.7055
lfemur -15.7186 -3.0947 -11.4228
ltibia 31.8681
lfoot -15.5556 13.5739
ltoes -10.0205
235
root 1.77445 17.9735 -4.927 6.987 -0.21455 -0.460979
lowerback -2.04295 1.98803 -1.34602
upperback 1.89113 2.8932 -6.39336
thorax 3.37507 1.50244 -5.74554
lowerneck -11.0375 -7.32903 -1.89442
upperneck 43.6501 -13.814 6.30969
head 19.3726 -5.07362 0.746299
rclavicle -2.78299e-014 -4.77083e-015
rhumerus -28.1971 57.2191 -33.8569
rradius 127.856
rwrist -43.5133
rhand 39.3244 -18.4674
rfingers 7.12502
rthumb 61.8328 -30.1679
lclavicle -2.78299e-014 -4.77083e-015
lhumerus -6.97008 23.9759 41.6067
lradius 92.8212
lwrist -10.1719
lhand -20.4056 6.62207
lfingers 7.12502
lthumb 5.94825 36.5186
rfemur -13.9067 -0.302687 10.9417
rtibia 27.9149
rfoot -14.6478 -15.8047
rtoes 1.64056
lfemur -15.6403 -3.09618 -11.4886
ltibia 31.8827
lfoot -15.5812 13.7282
ltoes -9.97759
